<mxfile host="app.diagrams.net" agent="Mozilla/5.0 (Macintosh; Intel Mac OS X 10_15_7) AppleWebKit/537.36 (KHTML, like Gecko) Chrome/132.0.0.0 Safari/537.36" version="26.0.16">
  <diagram name="第 1 页" id="uHZ1VUq9_zvSqKTnjPbf">
    <mxGraphModel dx="2175" dy="1268" grid="0" gridSize="10" guides="1" tooltips="1" connect="1" arrows="1" fold="1" page="0" pageScale="1" pageWidth="827" pageHeight="1169" math="0" shadow="0">
      <root>
        <mxCell id="0" />
        <mxCell id="1" parent="0" />
        <mxCell id="-KiGtzHLehjaaCyr8mLI-1" value="InsigntController" style="shape=umlLifeline;perimeter=lifelinePerimeter;whiteSpace=wrap;html=1;container=1;collapsible=0;recursiveResize=0;outlineConnect=0;rounded=1;shadow=0;comic=0;labelBackgroundColor=none;strokeWidth=1;fontFamily=Verdana;fontSize=12;align=center;" vertex="1" parent="1">
          <mxGeometry x="260" y="80" width="100" height="740" as="geometry" />
        </mxCell>
        <mxCell id="-KiGtzHLehjaaCyr8mLI-2" value="" style="html=1;points=[];perimeter=orthogonalPerimeter;rounded=0;shadow=0;comic=0;labelBackgroundColor=none;strokeWidth=1;fontFamily=Verdana;fontSize=12;align=center;" vertex="1" parent="-KiGtzHLehjaaCyr8mLI-1">
          <mxGeometry x="45" y="100" width="10" height="575" as="geometry" />
        </mxCell>
        <mxCell id="-KiGtzHLehjaaCyr8mLI-41" value="返回统计视图" style="html=1;verticalAlign=bottom;endArrow=open;dashed=1;endSize=6;labelBackgroundColor=none;fontFamily=Verdana;fontSize=12;edgeStyle=elbowEdgeStyle;elbow=vertical;jumpSize=6;" edge="1" parent="-KiGtzHLehjaaCyr8mLI-1">
          <mxGeometry x="-0.0024" relative="1" as="geometry">
            <mxPoint x="-97" y="588" as="targetPoint" />
            <Array as="points">
              <mxPoint x="-17" y="588" />
              <mxPoint x="13" y="588" />
            </Array>
            <mxPoint x="42" y="588" as="sourcePoint" />
            <mxPoint as="offset" />
          </mxGeometry>
        </mxCell>
        <mxCell id="-KiGtzHLehjaaCyr8mLI-42" value="返回统计结果" style="html=1;verticalAlign=bottom;endArrow=open;dashed=1;endSize=6;labelBackgroundColor=none;fontFamily=Verdana;fontSize=12;edgeStyle=elbowEdgeStyle;elbow=vertical;jumpSize=6;" edge="1" parent="-KiGtzHLehjaaCyr8mLI-1">
          <mxGeometry x="0.013" relative="1" as="geometry">
            <mxPoint x="53" y="562" as="targetPoint" />
            <Array as="points">
              <mxPoint x="133" y="562" />
              <mxPoint x="163" y="562" />
            </Array>
            <mxPoint x="176" y="562" as="sourcePoint" />
            <mxPoint as="offset" />
          </mxGeometry>
        </mxCell>
        <mxCell id="-KiGtzHLehjaaCyr8mLI-3" value="StatMainService" style="shape=umlLifeline;perimeter=lifelinePerimeter;whiteSpace=wrap;html=1;container=1;collapsible=0;recursiveResize=0;outlineConnect=0;rounded=1;shadow=0;comic=0;labelBackgroundColor=none;strokeWidth=1;fontFamily=Verdana;fontSize=12;align=center;" vertex="1" parent="1">
          <mxGeometry x="400" y="80" width="100" height="740" as="geometry" />
        </mxCell>
        <mxCell id="-KiGtzHLehjaaCyr8mLI-4" value="" style="html=1;points=[];perimeter=orthogonalPerimeter;rounded=0;shadow=0;comic=0;labelBackgroundColor=none;strokeWidth=1;fontFamily=Verdana;fontSize=12;align=center;" vertex="1" parent="-KiGtzHLehjaaCyr8mLI-3">
          <mxGeometry x="45" y="120" width="10" height="528" as="geometry" />
        </mxCell>
        <mxCell id="-KiGtzHLehjaaCyr8mLI-53" value="" style="html=1;points=[];perimeter=orthogonalPerimeter;rounded=0;shadow=0;comic=0;labelBackgroundColor=none;strokeWidth=1;fontFamily=Verdana;fontSize=12;align=center;" vertex="1" parent="-KiGtzHLehjaaCyr8mLI-3">
          <mxGeometry x="51" y="293" width="10" height="41" as="geometry" />
        </mxCell>
        <mxCell id="-KiGtzHLehjaaCyr8mLI-8" value="ConfigService" style="shape=umlLifeline;perimeter=lifelinePerimeter;whiteSpace=wrap;html=1;container=1;collapsible=0;recursiveResize=0;outlineConnect=0;rounded=1;shadow=0;comic=0;labelBackgroundColor=none;strokeWidth=1;fontFamily=Verdana;fontSize=12;align=center;" vertex="1" parent="1">
          <mxGeometry x="540" y="80" width="100" height="740" as="geometry" />
        </mxCell>
        <mxCell id="-KiGtzHLehjaaCyr8mLI-9" value="" style="html=1;points=[];perimeter=orthogonalPerimeter;rounded=0;shadow=0;comic=0;labelBackgroundColor=none;strokeWidth=1;fontFamily=Verdana;fontSize=12;align=center;" vertex="1" parent="-KiGtzHLehjaaCyr8mLI-8">
          <mxGeometry x="45" y="122" width="10" height="27" as="geometry" />
        </mxCell>
        <mxCell id="-KiGtzHLehjaaCyr8mLI-5" value="返回原始数据集" style="html=1;verticalAlign=bottom;endArrow=open;dashed=1;endSize=6;labelBackgroundColor=none;fontFamily=Verdana;fontSize=12;edgeStyle=elbowEdgeStyle;elbow=vertical;jumpSize=6;" edge="1" parent="-KiGtzHLehjaaCyr8mLI-8">
          <mxGeometry x="-0.0024" relative="1" as="geometry">
            <mxPoint x="-87.99647058823558" y="272" as="targetPoint" />
            <Array as="points">
              <mxPoint x="147.68000000000006" y="272" />
              <mxPoint x="177.68000000000006" y="272" />
            </Array>
            <mxPoint x="332.18000000000006" y="272" as="sourcePoint" />
            <mxPoint as="offset" />
          </mxGeometry>
        </mxCell>
        <mxCell id="-KiGtzHLehjaaCyr8mLI-34" value="返回聚合数据" style="html=1;verticalAlign=bottom;endArrow=open;dashed=1;endSize=6;labelBackgroundColor=none;fontFamily=Verdana;fontSize=12;edgeStyle=elbowEdgeStyle;elbow=vertical;jumpSize=6;" edge="1" parent="-KiGtzHLehjaaCyr8mLI-8">
          <mxGeometry x="-0.0024" relative="1" as="geometry">
            <mxPoint x="-84.99647058823535" y="488" as="targetPoint" />
            <Array as="points">
              <mxPoint x="288.68000000000006" y="488" />
              <mxPoint x="318.68000000000006" y="488" />
            </Array>
            <mxPoint x="473.68000000000006" y="488" as="sourcePoint" />
            <mxPoint as="offset" />
          </mxGeometry>
        </mxCell>
        <mxCell id="-KiGtzHLehjaaCyr8mLI-11" value="StatIndicatorService" style="shape=umlLifeline;perimeter=lifelinePerimeter;whiteSpace=wrap;html=1;container=1;collapsible=0;recursiveResize=0;outlineConnect=0;rounded=1;shadow=0;comic=0;labelBackgroundColor=none;strokeWidth=1;fontFamily=Verdana;fontSize=12;align=center;" vertex="1" parent="1">
          <mxGeometry x="680" y="80" width="100" height="740" as="geometry" />
        </mxCell>
        <mxCell id="-KiGtzHLehjaaCyr8mLI-28" value="" style="html=1;points=[];perimeter=orthogonalPerimeter;rounded=0;shadow=0;comic=0;labelBackgroundColor=none;strokeWidth=1;fontFamily=Verdana;fontSize=12;align=center;" vertex="1" parent="-KiGtzHLehjaaCyr8mLI-11">
          <mxGeometry x="45" y="161" width="10" height="30" as="geometry" />
        </mxCell>
        <mxCell id="-KiGtzHLehjaaCyr8mLI-17" value="StatDataService" style="shape=umlLifeline;perimeter=lifelinePerimeter;whiteSpace=wrap;html=1;container=1;collapsible=0;recursiveResize=0;outlineConnect=0;rounded=1;shadow=0;comic=0;labelBackgroundColor=none;strokeWidth=1;fontFamily=Verdana;fontSize=12;align=center;" vertex="1" parent="1">
          <mxGeometry x="820" y="80" width="100" height="740" as="geometry" />
        </mxCell>
        <mxCell id="-KiGtzHLehjaaCyr8mLI-19" value="" style="html=1;points=[];perimeter=orthogonalPerimeter;rounded=0;shadow=0;comic=0;labelBackgroundColor=none;strokeWidth=1;fontFamily=Verdana;fontSize=12;align=center;" vertex="1" parent="-KiGtzHLehjaaCyr8mLI-17">
          <mxGeometry x="45" y="238" width="10" height="37" as="geometry" />
        </mxCell>
        <mxCell id="-KiGtzHLehjaaCyr8mLI-21" value="StatMemoryService" style="shape=umlLifeline;perimeter=lifelinePerimeter;whiteSpace=wrap;html=1;container=1;collapsible=0;recursiveResize=0;outlineConnect=0;rounded=1;shadow=0;comic=0;labelBackgroundColor=none;strokeWidth=1;fontFamily=Verdana;fontSize=12;align=center;" vertex="1" parent="1">
          <mxGeometry x="960" y="80" width="100" height="740" as="geometry" />
        </mxCell>
        <mxCell id="-KiGtzHLehjaaCyr8mLI-55" value="返回工作项详情" style="html=1;verticalAlign=bottom;endArrow=open;dashed=1;endSize=6;labelBackgroundColor=none;fontFamily=Verdana;fontSize=12;edgeStyle=elbowEdgeStyle;elbow=vertical;jumpSize=6;" edge="1" parent="-KiGtzHLehjaaCyr8mLI-21">
          <mxGeometry x="-0.002" relative="1" as="geometry">
            <mxPoint x="53" y="467" as="targetPoint" />
            <Array as="points">
              <mxPoint x="166" y="467" />
              <mxPoint x="196" y="467" />
            </Array>
            <mxPoint x="198" y="467" as="sourcePoint" />
            <mxPoint as="offset" />
          </mxGeometry>
        </mxCell>
        <mxCell id="-KiGtzHLehjaaCyr8mLI-61" value="" style="html=1;points=[];perimeter=orthogonalPerimeter;rounded=0;shadow=0;comic=0;labelBackgroundColor=none;strokeWidth=1;fontFamily=Verdana;fontSize=12;align=center;" vertex="1" parent="-KiGtzHLehjaaCyr8mLI-21">
          <mxGeometry x="45" y="349" width="10" height="135" as="geometry" />
        </mxCell>
        <mxCell id="-KiGtzHLehjaaCyr8mLI-24" value="提交统计请求&lt;div&gt;（insight_id、配置）&lt;/div&gt;" style="html=1;verticalAlign=bottom;endArrow=block;entryX=0;entryY=0;labelBackgroundColor=none;fontFamily=Verdana;fontSize=12;edgeStyle=elbowEdgeStyle;elbow=vertical;" edge="1" parent="1" source="-KiGtzHLehjaaCyr8mLI-31" target="-KiGtzHLehjaaCyr8mLI-2">
          <mxGeometry x="0.011" relative="1" as="geometry">
            <mxPoint x="150" y="180" as="sourcePoint" />
            <mxPoint as="offset" />
          </mxGeometry>
        </mxCell>
        <mxCell id="-KiGtzHLehjaaCyr8mLI-25" value="execute_stat_request&lt;div&gt;(params)&lt;/div&gt;" style="html=1;verticalAlign=bottom;endArrow=block;entryX=0;entryY=0;labelBackgroundColor=none;fontFamily=Verdana;fontSize=12;edgeStyle=elbowEdgeStyle;elbow=vertical;" edge="1" parent="1" source="-KiGtzHLehjaaCyr8mLI-2" target="-KiGtzHLehjaaCyr8mLI-4">
          <mxGeometry x="-0.0019" relative="1" as="geometry">
            <mxPoint x="370" y="200" as="sourcePoint" />
            <mxPoint as="offset" />
          </mxGeometry>
        </mxCell>
        <mxCell id="-KiGtzHLehjaaCyr8mLI-26" value="stat_python" style="shape=umlLifeline;perimeter=lifelinePerimeter;whiteSpace=wrap;html=1;container=1;collapsible=0;recursiveResize=0;outlineConnect=0;rounded=1;shadow=0;comic=0;labelBackgroundColor=none;strokeWidth=1;fontFamily=Verdana;fontSize=12;align=center;" vertex="1" parent="1">
          <mxGeometry x="1110" y="80" width="100" height="740" as="geometry" />
        </mxCell>
        <mxCell id="-KiGtzHLehjaaCyr8mLI-31" value="" style="shape=umlLifeline;perimeter=lifelinePerimeter;whiteSpace=wrap;html=1;container=1;dropTarget=0;collapsible=0;recursiveResize=0;outlineConnect=0;portConstraint=eastwest;newEdgeStyle={&quot;curved&quot;:0,&quot;rounded&quot;:0};participant=umlActor;" vertex="1" parent="1">
          <mxGeometry x="147" y="80" width="46" height="740" as="geometry" />
        </mxCell>
        <mxCell id="-KiGtzHLehjaaCyr8mLI-35" value="parse_config()" style="html=1;verticalAlign=bottom;endArrow=block;labelBackgroundColor=none;fontFamily=Verdana;fontSize=12;edgeStyle=elbowEdgeStyle;elbow=vertical;" edge="1" parent="1">
          <mxGeometry x="-0.0002" relative="1" as="geometry">
            <mxPoint x="457" y="204" as="sourcePoint" />
            <mxPoint x="583" y="204" as="targetPoint" />
            <mxPoint as="offset" />
          </mxGeometry>
        </mxCell>
        <mxCell id="-KiGtzHLehjaaCyr8mLI-37" value="返回指标类型相关信息（如流转指标、复合指标等）" style="html=1;verticalAlign=bottom;endArrow=open;dashed=1;endSize=6;labelBackgroundColor=none;fontFamily=Verdana;fontSize=12;edgeStyle=elbowEdgeStyle;elbow=vertical;jumpSize=6;" edge="1" parent="1">
          <mxGeometry x="0.0016" y="-5" relative="1" as="geometry">
            <mxPoint x="461" y="271" as="targetPoint" />
            <Array as="points">
              <mxPoint x="658" y="271" />
              <mxPoint x="688" y="271" />
            </Array>
            <mxPoint x="723" y="271" as="sourcePoint" />
            <mxPoint as="offset" />
          </mxGeometry>
        </mxCell>
        <mxCell id="-KiGtzHLehjaaCyr8mLI-38" value="返回配置相关信息" style="html=1;verticalAlign=bottom;endArrow=open;dashed=1;endSize=6;labelBackgroundColor=none;fontFamily=Verdana;fontSize=12;edgeStyle=elbowEdgeStyle;elbow=vertical;jumpSize=6;" edge="1" parent="1">
          <mxGeometry x="0.013" relative="1" as="geometry">
            <mxPoint x="460" y="224" as="targetPoint" />
            <Array as="points">
              <mxPoint x="540" y="224" />
              <mxPoint x="570" y="224" />
            </Array>
            <mxPoint x="583" y="224" as="sourcePoint" />
            <mxPoint as="offset" />
          </mxGeometry>
        </mxCell>
        <mxCell id="-KiGtzHLehjaaCyr8mLI-48" value="&lt;font&gt;&lt;span style=&quot;color: rgb(56, 58, 66); font-family: ui-monospace, SFMono-Regular, &amp;quot;SF Mono&amp;quot;, Menlo, Consolas, &amp;quot;Liberation Mono&amp;quot;, monospace; font-style: normal; font-variant-ligatures: normal; font-variant-caps: normal; font-weight: 400; letter-spacing: normal; orphans: 2; text-align: start; text-indent: 0px; text-transform: none; widows: 2; word-spacing: 0px; -webkit-text-stroke-width: 0px; white-space: pre-wrap; background-color: rgb(246, 248, 250); text-decoration-thickness: initial; text-decoration-style: initial; text-decoration-color: initial; float: none; display: inline !important;&quot;&gt;用户 -&amp;gt;&amp;gt; InsightController: 提交统计请求（参数：图表类型、时间范围等）&lt;br&gt;    I&lt;/span&gt;&lt;span class=&quot;hljs-function&quot; style=&quot;box-sizing: border-box; font-family: ui-monospace, SFMono-Regular, &amp;quot;SF Mono&amp;quot;, Menlo, Consolas, &amp;quot;Liberation Mono&amp;quot;, monospace; color: rgb(56, 58, 66); font-style: normal; font-variant-ligatures: normal; font-variant-caps: normal; font-weight: 400; letter-spacing: normal; orphans: 2; text-align: start; text-indent: 0px; text-transform: none; widows: 2; word-spacing: 0px; -webkit-text-stroke-width: 0px; white-space: pre-wrap; background-color: rgb(246, 248, 250); text-decoration-thickness: initial; text-decoration-style: initial; text-decoration-color: initial;&quot;&gt;&lt;span class=&quot;hljs-title&quot; style=&quot;box-sizing: border-box; font-family: inherit; color: rgb(64, 120, 242);&quot;&gt;nsightController&lt;/span&gt; -&amp;gt;&lt;/span&gt;&lt;span style=&quot;color: rgb(56, 58, 66); font-family: ui-monospace, SFMono-Regular, &amp;quot;SF Mono&amp;quot;, Menlo, Consolas, &amp;quot;Liberation Mono&amp;quot;, monospace; font-style: normal; font-variant-ligatures: normal; font-variant-caps: normal; font-weight: 400; letter-spacing: normal; orphans: 2; text-align: start; text-indent: 0px; text-transform: none; widows: 2; word-spacing: 0px; -webkit-text-stroke-width: 0px; white-space: pre-wrap; background-color: rgb(246, 248, 250); text-decoration-thickness: initial; text-decoration-style: initial; text-decoration-color: initial; float: none; display: inline !important;&quot;&gt;&amp;gt; StatMainService: executeStatRequest(requestParams)&lt;br&gt;&lt;br&gt;    # &lt;/span&gt;&lt;span class=&quot;hljs-number&quot; style=&quot;box-sizing: border-box; font-family: ui-monospace, SFMono-Regular, &amp;quot;SF Mono&amp;quot;, Menlo, Consolas, &amp;quot;Liberation Mono&amp;quot;, monospace; color: rgb(152, 104, 1); font-style: normal; font-variant-ligatures: normal; font-variant-caps: normal; font-weight: 400; letter-spacing: normal; orphans: 2; text-align: start; text-indent: 0px; text-transform: none; widows: 2; word-spacing: 0px; -webkit-text-stroke-width: 0px; white-space: pre-wrap; background-color: rgb(246, 248, 250); text-decoration-thickness: initial; text-decoration-style: initial; text-decoration-color: initial;&quot;&gt;1&lt;/span&gt;&lt;span style=&quot;color: rgb(56, 58, 66); font-family: ui-monospace, SFMono-Regular, &amp;quot;SF Mono&amp;quot;, Menlo, Consolas, &amp;quot;Liberation Mono&amp;quot;, monospace; font-style: normal; font-variant-ligatures: normal; font-variant-caps: normal; font-weight: 400; letter-spacing: normal; orphans: 2; text-align: start; text-indent: 0px; text-transform: none; widows: 2; word-spacing: 0px; -webkit-text-stroke-width: 0px; white-space: pre-wrap; background-color: rgb(246, 248, 250); text-decoration-thickness: initial; text-decoration-style: initial; text-decoration-color: initial; float: none; display: inline !important;&quot;&gt;. 解析图表配置&lt;br&gt;    S&lt;/span&gt;&lt;span class=&quot;hljs-function&quot; style=&quot;box-sizing: border-box; font-family: ui-monospace, SFMono-Regular, &amp;quot;SF Mono&amp;quot;, Menlo, Consolas, &amp;quot;Liberation Mono&amp;quot;, monospace; color: rgb(56, 58, 66); font-style: normal; font-variant-ligatures: normal; font-variant-caps: normal; font-weight: 400; letter-spacing: normal; orphans: 2; text-align: start; text-indent: 0px; text-transform: none; widows: 2; word-spacing: 0px; -webkit-text-stroke-width: 0px; white-space: pre-wrap; background-color: rgb(246, 248, 250); text-decoration-thickness: initial; text-decoration-style: initial; text-decoration-color: initial;&quot;&gt;&lt;span class=&quot;hljs-title&quot; style=&quot;box-sizing: border-box; font-family: inherit; color: rgb(64, 120, 242);&quot;&gt;tatMainService&lt;/span&gt; -&amp;gt;&lt;/span&gt;&lt;span style=&quot;color: rgb(56, 58, 66); font-family: ui-monospace, SFMono-Regular, &amp;quot;SF Mono&amp;quot;, Menlo, Consolas, &amp;quot;Liberation Mono&amp;quot;, monospace; font-style: normal; font-variant-ligatures: normal; font-variant-caps: normal; font-weight: 400; letter-spacing: normal; orphans: 2; text-align: start; text-indent: 0px; text-transform: none; widows: 2; word-spacing: 0px; -webkit-text-stroke-width: 0px; white-space: pre-wrap; background-color: rgb(246, 248, 250); text-decoration-thickness: initial; text-decoration-style: initial; text-decoration-color: initial; float: none; display: inline !important;&quot;&gt;&amp;gt; ConfigService: parseChartConfig(requestParams)&lt;br&gt;    C&lt;/span&gt;&lt;span class=&quot;hljs-function&quot; style=&quot;box-sizing: border-box; font-family: ui-monospace, SFMono-Regular, &amp;quot;SF Mono&amp;quot;, Menlo, Consolas, &amp;quot;Liberation Mono&amp;quot;, monospace; color: rgb(56, 58, 66); font-style: normal; font-variant-ligatures: normal; font-variant-caps: normal; font-weight: 400; letter-spacing: normal; orphans: 2; text-align: start; text-indent: 0px; text-transform: none; widows: 2; word-spacing: 0px; -webkit-text-stroke-width: 0px; white-space: pre-wrap; background-color: rgb(246, 248, 250); text-decoration-thickness: initial; text-decoration-style: initial; text-decoration-color: initial;&quot;&gt;&lt;span class=&quot;hljs-title&quot; style=&quot;box-sizing: border-box; font-family: inherit; color: rgb(64, 120, 242);&quot;&gt;onfigService&lt;/span&gt; --&amp;gt;&lt;/span&gt;&lt;span style=&quot;color: rgb(56, 58, 66); font-family: ui-monospace, SFMono-Regular, &amp;quot;SF Mono&amp;quot;, Menlo, Consolas, &amp;quot;Liberation Mono&amp;quot;, monospace; font-style: normal; font-variant-ligatures: normal; font-variant-caps: normal; font-weight: 400; letter-spacing: normal; orphans: 2; text-align: start; text-indent: 0px; text-transform: none; widows: 2; word-spacing: 0px; -webkit-text-stroke-width: 0px; white-space: pre-wrap; background-color: rgb(246, 248, 250); text-decoration-thickness: initial; text-decoration-style: initial; text-decoration-color: initial; float: none; display: inline !important;&quot;&gt;&amp;gt; StatMainService: 返回配置对象（含指标类型、数据源定义）&lt;br&gt;&lt;br&gt;    # &lt;/span&gt;&lt;span class=&quot;hljs-number&quot; style=&quot;box-sizing: border-box; font-family: ui-monospace, SFMono-Regular, &amp;quot;SF Mono&amp;quot;, Menlo, Consolas, &amp;quot;Liberation Mono&amp;quot;, monospace; color: rgb(152, 104, 1); font-style: normal; font-variant-ligatures: normal; font-variant-caps: normal; font-weight: 400; letter-spacing: normal; orphans: 2; text-align: start; text-indent: 0px; text-transform: none; widows: 2; word-spacing: 0px; -webkit-text-stroke-width: 0px; white-space: pre-wrap; background-color: rgb(246, 248, 250); text-decoration-thickness: initial; text-decoration-style: initial; text-decoration-color: initial;&quot;&gt;2&lt;/span&gt;&lt;span style=&quot;color: rgb(56, 58, 66); font-family: ui-monospace, SFMono-Regular, &amp;quot;SF Mono&amp;quot;, Menlo, Consolas, &amp;quot;Liberation Mono&amp;quot;, monospace; font-style: normal; font-variant-ligatures: normal; font-variant-caps: normal; font-weight: 400; letter-spacing: normal; orphans: 2; text-align: start; text-indent: 0px; text-transform: none; widows: 2; word-spacing: 0px; -webkit-text-stroke-width: 0px; white-space: pre-wrap; background-color: rgb(246, 248, 250); text-decoration-thickness: initial; text-decoration-style: initial; text-decoration-color: initial; float: none; display: inline !important;&quot;&gt;. 解析统计指标&lt;br&gt;    S&lt;/span&gt;&lt;span class=&quot;hljs-function&quot; style=&quot;box-sizing: border-box; font-family: ui-monospace, SFMono-Regular, &amp;quot;SF Mono&amp;quot;, Menlo, Consolas, &amp;quot;Liberation Mono&amp;quot;, monospace; color: rgb(56, 58, 66); font-style: normal; font-variant-ligatures: normal; font-variant-caps: normal; font-weight: 400; letter-spacing: normal; orphans: 2; text-align: start; text-indent: 0px; text-transform: none; widows: 2; word-spacing: 0px; -webkit-text-stroke-width: 0px; white-space: pre-wrap; background-color: rgb(246, 248, 250); text-decoration-thickness: initial; text-decoration-style: initial; text-decoration-color: initial;&quot;&gt;&lt;span class=&quot;hljs-title&quot; style=&quot;box-sizing: border-box; font-family: inherit; color: rgb(64, 120, 242);&quot;&gt;tatMainService&lt;/span&gt; -&amp;gt;&lt;/span&gt;&lt;span style=&quot;color: rgb(56, 58, 66); font-family: ui-monospace, SFMono-Regular, &amp;quot;SF Mono&amp;quot;, Menlo, Consolas, &amp;quot;Liberation Mono&amp;quot;, monospace; font-style: normal; font-variant-ligatures: normal; font-variant-caps: normal; font-weight: 400; letter-spacing: normal; orphans: 2; text-align: start; text-indent: 0px; text-transform: none; widows: 2; word-spacing: 0px; -webkit-text-stroke-width: 0px; white-space: pre-wrap; background-color: rgb(246, 248, 250); text-decoration-thickness: initial; text-decoration-style: initial; text-decoration-color: initial; float: none; display: inline !important;&quot;&gt;&amp;gt; StatIndicatorService: resolveIndicators(config)&lt;br&gt;    S&lt;/span&gt;&lt;span class=&quot;hljs-function&quot; style=&quot;box-sizing: border-box; font-family: ui-monospace, SFMono-Regular, &amp;quot;SF Mono&amp;quot;, Menlo, Consolas, &amp;quot;Liberation Mono&amp;quot;, monospace; color: rgb(56, 58, 66); font-style: normal; font-variant-ligatures: normal; font-variant-caps: normal; font-weight: 400; letter-spacing: normal; orphans: 2; text-align: start; text-indent: 0px; text-transform: none; widows: 2; word-spacing: 0px; -webkit-text-stroke-width: 0px; white-space: pre-wrap; background-color: rgb(246, 248, 250); text-decoration-thickness: initial; text-decoration-style: initial; text-decoration-color: initial;&quot;&gt;&lt;span class=&quot;hljs-title&quot; style=&quot;box-sizing: border-box; font-family: inherit; color: rgb(64, 120, 242);&quot;&gt;tatIndicatorService&lt;/span&gt; --&amp;gt;&lt;/span&gt;&lt;span style=&quot;color: rgb(56, 58, 66); font-family: ui-monospace, SFMono-Regular, &amp;quot;SF Mono&amp;quot;, Menlo, Consolas, &amp;quot;Liberation Mono&amp;quot;, monospace; font-style: normal; font-variant-ligatures: normal; font-variant-caps: normal; font-weight: 400; letter-spacing: normal; orphans: 2; text-align: start; text-indent: 0px; text-transform: none; widows: 2; word-spacing: 0px; -webkit-text-stroke-width: 0px; white-space: pre-wrap; background-color: rgb(246, 248, 250); text-decoration-thickness: initial; text-decoration-style: initial; text-decoration-color: initial; float: none; display: inline !important;&quot;&gt;&amp;gt; StatMainService: 返回指标列表（如流转指标、复合指标）&lt;br&gt;&lt;br&gt;    # &lt;/span&gt;&lt;span class=&quot;hljs-number&quot; style=&quot;box-sizing: border-box; font-family: ui-monospace, SFMono-Regular, &amp;quot;SF Mono&amp;quot;, Menlo, Consolas, &amp;quot;Liberation Mono&amp;quot;, monospace; color: rgb(152, 104, 1); font-style: normal; font-variant-ligatures: normal; font-variant-caps: normal; font-weight: 400; letter-spacing: normal; orphans: 2; text-align: start; text-indent: 0px; text-transform: none; widows: 2; word-spacing: 0px; -webkit-text-stroke-width: 0px; white-space: pre-wrap; background-color: rgb(246, 248, 250); text-decoration-thickness: initial; text-decoration-style: initial; text-decoration-color: initial;&quot;&gt;3&lt;/span&gt;&lt;span style=&quot;color: rgb(56, 58, 66); font-family: ui-monospace, SFMono-Regular, &amp;quot;SF Mono&amp;quot;, Menlo, Consolas, &amp;quot;Liberation Mono&amp;quot;, monospace; font-style: normal; font-variant-ligatures: normal; font-variant-caps: normal; font-weight: 400; letter-spacing: normal; orphans: 2; text-align: start; text-indent: 0px; text-transform: none; widows: 2; word-spacing: 0px; -webkit-text-stroke-width: 0px; white-space: pre-wrap; background-color: rgb(246, 248, 250); text-decoration-thickness: initial; text-decoration-style: initial; text-decoration-color: initial; float: none; display: inline !important;&quot;&gt;. 获取基础数据&lt;br&gt;    S&lt;/span&gt;&lt;span class=&quot;hljs-function&quot; style=&quot;box-sizing: border-box; font-family: ui-monospace, SFMono-Regular, &amp;quot;SF Mono&amp;quot;, Menlo, Consolas, &amp;quot;Liberation Mono&amp;quot;, monospace; color: rgb(56, 58, 66); font-style: normal; font-variant-ligatures: normal; font-variant-caps: normal; font-weight: 400; letter-spacing: normal; orphans: 2; text-align: start; text-indent: 0px; text-transform: none; widows: 2; word-spacing: 0px; -webkit-text-stroke-width: 0px; white-space: pre-wrap; background-color: rgb(246, 248, 250); text-decoration-thickness: initial; text-decoration-style: initial; text-decoration-color: initial;&quot;&gt;&lt;span class=&quot;hljs-title&quot; style=&quot;box-sizing: border-box; font-family: inherit; color: rgb(64, 120, 242);&quot;&gt;tatMainService&lt;/span&gt; -&amp;gt;&lt;/span&gt;&lt;span style=&quot;color: rgb(56, 58, 66); font-family: ui-monospace, SFMono-Regular, &amp;quot;SF Mono&amp;quot;, Menlo, Consolas, &amp;quot;Liberation Mono&amp;quot;, monospace; font-style: normal; font-variant-ligatures: normal; font-variant-caps: normal; font-weight: 400; letter-spacing: normal; orphans: 2; text-align: start; text-indent: 0px; text-transform: none; widows: 2; word-spacing: 0px; -webkit-text-stroke-width: 0px; white-space: pre-wrap; background-color: rgb(246, 248, 250); text-decoration-thickness: initial; text-decoration-style: initial; text-decoration-color: initial; float: none; display: inline !important;&quot;&gt;&amp;gt; StatDataService: fetchRawData(指标列表, 时间范围)&lt;br&gt;    S&lt;/span&gt;&lt;span class=&quot;hljs-function&quot; style=&quot;box-sizing: border-box; font-family: ui-monospace, SFMono-Regular, &amp;quot;SF Mono&amp;quot;, Menlo, Consolas, &amp;quot;Liberation Mono&amp;quot;, monospace; color: rgb(56, 58, 66); font-style: normal; font-variant-ligatures: normal; font-variant-caps: normal; font-weight: 400; letter-spacing: normal; orphans: 2; text-align: start; text-indent: 0px; text-transform: none; widows: 2; word-spacing: 0px; -webkit-text-stroke-width: 0px; white-space: pre-wrap; background-color: rgb(246, 248, 250); text-decoration-thickness: initial; text-decoration-style: initial; text-decoration-color: initial;&quot;&gt;&lt;span class=&quot;hljs-title&quot; style=&quot;box-sizing: border-box; font-family: inherit; color: rgb(64, 120, 242);&quot;&gt;tatDataService&lt;/span&gt; -&amp;gt;&lt;/span&gt;&lt;span style=&quot;color: rgb(56, 58, 66); font-family: ui-monospace, SFMono-Regular, &amp;quot;SF Mono&amp;quot;, Menlo, Consolas, &amp;quot;Liberation Mono&amp;quot;, monospace; font-style: normal; font-variant-ligatures: normal; font-variant-caps: normal; font-weight: 400; letter-spacing: normal; orphans: 2; text-align: start; text-indent: 0px; text-transform: none; widows: 2; word-spacing: 0px; -webkit-text-stroke-width: 0px; white-space: pre-wrap; background-color: rgb(246, 248, 250); text-decoration-thickness: initial; text-decoration-style: initial; text-decoration-color: initial; float: none; display: inline !important;&quot;&gt;&amp;gt; StatDataService: 执行数据查询（如数据库、API）&lt;br&gt;    S&lt;/span&gt;&lt;span class=&quot;hljs-function&quot; style=&quot;box-sizing: border-box; font-family: ui-monospace, SFMono-Regular, &amp;quot;SF Mono&amp;quot;, Menlo, Consolas, &amp;quot;Liberation Mono&amp;quot;, monospace; color: rgb(56, 58, 66); font-style: normal; font-variant-ligatures: normal; font-variant-caps: normal; font-weight: 400; letter-spacing: normal; orphans: 2; text-align: start; text-indent: 0px; text-transform: none; widows: 2; word-spacing: 0px; -webkit-text-stroke-width: 0px; white-space: pre-wrap; background-color: rgb(246, 248, 250); text-decoration-thickness: initial; text-decoration-style: initial; text-decoration-color: initial;&quot;&gt;&lt;span class=&quot;hljs-title&quot; style=&quot;box-sizing: border-box; font-family: inherit; color: rgb(64, 120, 242);&quot;&gt;tatDataService&lt;/span&gt; --&amp;gt;&lt;/span&gt;&lt;span style=&quot;color: rgb(56, 58, 66); font-family: ui-monospace, SFMono-Regular, &amp;quot;SF Mono&amp;quot;, Menlo, Consolas, &amp;quot;Liberation Mono&amp;quot;, monospace; font-style: normal; font-variant-ligatures: normal; font-variant-caps: normal; font-weight: 400; letter-spacing: normal; orphans: 2; text-align: start; text-indent: 0px; text-transform: none; widows: 2; word-spacing: 0px; -webkit-text-stroke-width: 0px; white-space: pre-wrap; background-color: rgb(246, 248, 250); text-decoration-thickness: initial; text-decoration-style: initial; text-decoration-color: initial; float: none; display: inline !important;&quot;&gt;&amp;gt; StatMainService: 返回原始数据集&lt;br&gt;&lt;br&gt;    # &lt;/span&gt;&lt;span class=&quot;hljs-number&quot; style=&quot;box-sizing: border-box; font-family: ui-monospace, SFMono-Regular, &amp;quot;SF Mono&amp;quot;, Menlo, Consolas, &amp;quot;Liberation Mono&amp;quot;, monospace; color: rgb(152, 104, 1); font-style: normal; font-variant-ligatures: normal; font-variant-caps: normal; font-weight: 400; letter-spacing: normal; orphans: 2; text-align: start; text-indent: 0px; text-transform: none; widows: 2; word-spacing: 0px; -webkit-text-stroke-width: 0px; white-space: pre-wrap; background-color: rgb(246, 248, 250); text-decoration-thickness: initial; text-decoration-style: initial; text-decoration-color: initial;&quot;&gt;4&lt;/span&gt;&lt;span style=&quot;color: rgb(56, 58, 66); font-family: ui-monospace, SFMono-Regular, &amp;quot;SF Mono&amp;quot;, Menlo, Consolas, &amp;quot;Liberation Mono&amp;quot;, monospace; font-style: normal; font-variant-ligatures: normal; font-variant-caps: normal; font-weight: 400; letter-spacing: normal; orphans: 2; text-align: start; text-indent: 0px; text-transform: none; widows: 2; word-spacing: 0px; -webkit-text-stroke-width: 0px; white-space: pre-wrap; background-color: rgb(246, 248, 250); text-decoration-thickness: initial; text-decoration-style: initial; text-decoration-color: initial; float: none; display: inline !important;&quot;&gt;. 处理聚合计算（若需要）&lt;br&gt;    alt 配置要求聚合计算&lt;br&gt;        S&lt;/span&gt;&lt;span class=&quot;hljs-function&quot; style=&quot;box-sizing: border-box; font-family: ui-monospace, SFMono-Regular, &amp;quot;SF Mono&amp;quot;, Menlo, Consolas, &amp;quot;Liberation Mono&amp;quot;, monospace; color: rgb(56, 58, 66); font-style: normal; font-variant-ligatures: normal; font-variant-caps: normal; font-weight: 400; letter-spacing: normal; orphans: 2; text-align: start; text-indent: 0px; text-transform: none; widows: 2; word-spacing: 0px; -webkit-text-stroke-width: 0px; white-space: pre-wrap; background-color: rgb(246, 248, 250); text-decoration-thickness: initial; text-decoration-style: initial; text-decoration-color: initial;&quot;&gt;&lt;span class=&quot;hljs-title&quot; style=&quot;box-sizing: border-box; font-family: inherit; color: rgb(64, 120, 242);&quot;&gt;tatMainService&lt;/span&gt; -&amp;gt;&lt;/span&gt;&lt;span style=&quot;color: rgb(56, 58, 66); font-family: ui-monospace, SFMono-Regular, &amp;quot;SF Mono&amp;quot;, Menlo, Consolas, &amp;quot;Liberation Mono&amp;quot;, monospace; font-style: normal; font-variant-ligatures: normal; font-variant-caps: normal; font-weight: 400; letter-spacing: normal; orphans: 2; text-align: start; text-indent: 0px; text-transform: none; widows: 2; word-spacing: 0px; -webkit-text-stroke-width: 0px; white-space: pre-wrap; background-color: rgb(246, 248, 250); text-decoration-thickness: initial; text-decoration-style: initial; text-decoration-color: initial; float: none; display: inline !important;&quot;&gt;&amp;gt; StatMemoryService: calculateAggregation(原始数据, 聚合规则)&lt;br&gt;        S&lt;/span&gt;&lt;span class=&quot;hljs-function&quot; style=&quot;box-sizing: border-box; font-family: ui-monospace, SFMono-Regular, &amp;quot;SF Mono&amp;quot;, Menlo, Consolas, &amp;quot;Liberation Mono&amp;quot;, monospace; color: rgb(56, 58, 66); font-style: normal; font-variant-ligatures: normal; font-variant-caps: normal; font-weight: 400; letter-spacing: normal; orphans: 2; text-align: start; text-indent: 0px; text-transform: none; widows: 2; word-spacing: 0px; -webkit-text-stroke-width: 0px; white-space: pre-wrap; background-color: rgb(246, 248, 250); text-decoration-thickness: initial; text-decoration-style: initial; text-decoration-color: initial;&quot;&gt;&lt;span class=&quot;hljs-title&quot; style=&quot;box-sizing: border-box; font-family: inherit; color: rgb(64, 120, 242);&quot;&gt;tatMemoryService&lt;/span&gt; -&amp;gt;&lt;/span&gt;&lt;span style=&quot;color: rgb(56, 58, 66); font-family: ui-monospace, SFMono-Regular, &amp;quot;SF Mono&amp;quot;, Menlo, Consolas, &amp;quot;Liberation Mono&amp;quot;, monospace; font-style: normal; font-variant-ligatures: normal; font-variant-caps: normal; font-weight: 400; letter-spacing: normal; orphans: 2; text-align: start; text-indent: 0px; text-transform: none; widows: 2; word-spacing: 0px; -webkit-text-stroke-width: 0px; white-space: pre-wrap; background-color: rgb(246, 248, 250); text-decoration-thickness: initial; text-decoration-style: initial; text-decoration-color: initial; float: none; display: inline !important;&quot;&gt;&amp;gt; stat_python: executePythonScript(聚合算法, 数据)&lt;br&gt;        &lt;/span&gt;&lt;span class=&quot;hljs-function&quot; style=&quot;box-sizing: border-box; font-family: ui-monospace, SFMono-Regular, &amp;quot;SF Mono&amp;quot;, Menlo, Consolas, &amp;quot;Liberation Mono&amp;quot;, monospace; color: rgb(56, 58, 66); font-style: normal; font-variant-ligatures: normal; font-variant-caps: normal; font-weight: 400; letter-spacing: normal; orphans: 2; text-align: start; text-indent: 0px; text-transform: none; widows: 2; word-spacing: 0px; -webkit-text-stroke-width: 0px; white-space: pre-wrap; background-color: rgb(246, 248, 250); text-decoration-thickness: initial; text-decoration-style: initial; text-decoration-color: initial;&quot;&gt;&lt;span class=&quot;hljs-title&quot; style=&quot;box-sizing: border-box; font-family: inherit; color: rgb(64, 120, 242);&quot;&gt;stat_python&lt;/span&gt; --&amp;gt;&lt;/span&gt;&lt;span style=&quot;color: rgb(56, 58, 66); font-family: ui-monospace, SFMono-Regular, &amp;quot;SF Mono&amp;quot;, Menlo, Consolas, &amp;quot;Liberation Mono&amp;quot;, monospace; font-style: normal; font-variant-ligatures: normal; font-variant-caps: normal; font-weight: 400; letter-spacing: normal; orphans: 2; text-align: start; text-indent: 0px; text-transform: none; widows: 2; word-spacing: 0px; -webkit-text-stroke-width: 0px; white-space: pre-wrap; background-color: rgb(246, 248, 250); text-decoration-thickness: initial; text-decoration-style: initial; text-decoration-color: initial; float: none; display: inline !important;&quot;&gt;&amp;gt; StatMemoryService: 返回聚合结果&lt;br&gt;        S&lt;/span&gt;&lt;span class=&quot;hljs-function&quot; style=&quot;box-sizing: border-box; font-family: ui-monospace, SFMono-Regular, &amp;quot;SF Mono&amp;quot;, Menlo, Consolas, &amp;quot;Liberation Mono&amp;quot;, monospace; color: rgb(56, 58, 66); font-style: normal; font-variant-ligatures: normal; font-variant-caps: normal; font-weight: 400; letter-spacing: normal; orphans: 2; text-align: start; text-indent: 0px; text-transform: none; widows: 2; word-spacing: 0px; -webkit-text-stroke-width: 0px; white-space: pre-wrap; background-color: rgb(246, 248, 250); text-decoration-thickness: initial; text-decoration-style: initial; text-decoration-color: initial;&quot;&gt;&lt;span class=&quot;hljs-title&quot; style=&quot;box-sizing: border-box; font-family: inherit; color: rgb(64, 120, 242);&quot;&gt;tatMemoryService&lt;/span&gt; --&amp;gt;&lt;/span&gt;&lt;span style=&quot;color: rgb(56, 58, 66); font-family: ui-monospace, SFMono-Regular, &amp;quot;SF Mono&amp;quot;, Menlo, Consolas, &amp;quot;Liberation Mono&amp;quot;, monospace; font-style: normal; font-variant-ligatures: normal; font-variant-caps: normal; font-weight: 400; letter-spacing: normal; orphans: 2; text-align: start; text-indent: 0px; text-transform: none; widows: 2; word-spacing: 0px; -webkit-text-stroke-width: 0px; white-space: pre-wrap; background-color: rgb(246, 248, 250); text-decoration-thickness: initial; text-decoration-style: initial; text-decoration-color: initial; float: none; display: inline !important;&quot;&gt;&amp;gt; StatMainService: 返回结构化聚合数据&lt;br&gt;    end&lt;br&gt;&lt;br&gt;    # &lt;/span&gt;&lt;span class=&quot;hljs-number&quot; style=&quot;box-sizing: border-box; font-family: ui-monospace, SFMono-Regular, &amp;quot;SF Mono&amp;quot;, Menlo, Consolas, &amp;quot;Liberation Mono&amp;quot;, monospace; color: rgb(152, 104, 1); font-style: normal; font-variant-ligatures: normal; font-variant-caps: normal; font-weight: 400; letter-spacing: normal; orphans: 2; text-align: start; text-indent: 0px; text-transform: none; widows: 2; word-spacing: 0px; -webkit-text-stroke-width: 0px; white-space: pre-wrap; background-color: rgb(246, 248, 250); text-decoration-thickness: initial; text-decoration-style: initial; text-decoration-color: initial;&quot;&gt;5&lt;/span&gt;&lt;span style=&quot;color: rgb(56, 58, 66); font-family: ui-monospace, SFMono-Regular, &amp;quot;SF Mono&amp;quot;, Menlo, Consolas, &amp;quot;Liberation Mono&amp;quot;, monospace; font-style: normal; font-variant-ligatures: normal; font-variant-caps: normal; font-weight: 400; letter-spacing: normal; orphans: 2; text-align: start; text-indent: 0px; text-transform: none; widows: 2; word-spacing: 0px; -webkit-text-stroke-width: 0px; white-space: pre-wrap; background-color: rgb(246, 248, 250); text-decoration-thickness: initial; text-decoration-style: initial; text-decoration-color: initial; float: none; display: inline !important;&quot;&gt;. 整合最终结果&lt;br&gt;    S&lt;/span&gt;&lt;span class=&quot;hljs-function&quot; style=&quot;box-sizing: border-box; font-family: ui-monospace, SFMono-Regular, &amp;quot;SF Mono&amp;quot;, Menlo, Consolas, &amp;quot;Liberation Mono&amp;quot;, monospace; color: rgb(56, 58, 66); font-style: normal; font-variant-ligatures: normal; font-variant-caps: normal; font-weight: 400; letter-spacing: normal; orphans: 2; text-align: start; text-indent: 0px; text-transform: none; widows: 2; word-spacing: 0px; -webkit-text-stroke-width: 0px; white-space: pre-wrap; background-color: rgb(246, 248, 250); text-decoration-thickness: initial; text-decoration-style: initial; text-decoration-color: initial;&quot;&gt;&lt;span class=&quot;hljs-title&quot; style=&quot;box-sizing: border-box; font-family: inherit; color: rgb(64, 120, 242);&quot;&gt;tatMainService&lt;/span&gt; -&amp;gt;&lt;/span&gt;&lt;span style=&quot;color: rgb(56, 58, 66); font-family: ui-monospace, SFMono-Regular, &amp;quot;SF Mono&amp;quot;, Menlo, Consolas, &amp;quot;Liberation Mono&amp;quot;, monospace; font-style: normal; font-variant-ligatures: normal; font-variant-caps: normal; font-weight: 400; letter-spacing: normal; orphans: 2; text-align: start; text-indent: 0px; text-transform: none; widows: 2; word-spacing: 0px; -webkit-text-stroke-width: 0px; white-space: pre-wrap; background-color: rgb(246, 248, 250); text-decoration-thickness: initial; text-decoration-style: initial; text-decoration-color: initial; float: none; display: inline !important;&quot;&gt;&amp;gt; StatMainService: mergeResults(原始数据, 聚合数据)&lt;br&gt;    S&lt;/span&gt;&lt;span class=&quot;hljs-function&quot; style=&quot;box-sizing: border-box; font-family: ui-monospace, SFMono-Regular, &amp;quot;SF Mono&amp;quot;, Menlo, Consolas, &amp;quot;Liberation Mono&amp;quot;, monospace; color: rgb(56, 58, 66); font-style: normal; font-variant-ligatures: normal; font-variant-caps: normal; font-weight: 400; letter-spacing: normal; orphans: 2; text-align: start; text-indent: 0px; text-transform: none; widows: 2; word-spacing: 0px; -webkit-text-stroke-width: 0px; white-space: pre-wrap; background-color: rgb(246, 248, 250); text-decoration-thickness: initial; text-decoration-style: initial; text-decoration-color: initial;&quot;&gt;&lt;span class=&quot;hljs-title&quot; style=&quot;box-sizing: border-box; font-family: inherit; color: rgb(64, 120, 242);&quot;&gt;tatMainService&lt;/span&gt; --&amp;gt;&lt;/span&gt;&lt;span style=&quot;color: rgb(56, 58, 66); font-family: ui-monospace, SFMono-Regular, &amp;quot;SF Mono&amp;quot;, Menlo, Consolas, &amp;quot;Liberation Mono&amp;quot;, monospace; font-style: normal; font-variant-ligatures: normal; font-variant-caps: normal; font-weight: 400; letter-spacing: normal; orphans: 2; text-align: start; text-indent: 0px; text-transform: none; widows: 2; word-spacing: 0px; -webkit-text-stroke-width: 0px; white-space: pre-wrap; background-color: rgb(246, 248, 250); text-decoration-thickness: initial; text-decoration-style: initial; text-decoration-color: initial; float: none; display: inline !important;&quot;&gt;&amp;gt; InsightController: 返回统计结果（结构化数据或图表数据）&lt;br&gt;&lt;br&gt;    I&lt;/span&gt;&lt;span class=&quot;hljs-function&quot; style=&quot;box-sizing: border-box; font-family: ui-monospace, SFMono-Regular, &amp;quot;SF Mono&amp;quot;, Menlo, Consolas, &amp;quot;Liberation Mono&amp;quot;, monospace; color: rgb(56, 58, 66); font-style: normal; font-variant-ligatures: normal; font-variant-caps: normal; font-weight: 400; letter-spacing: normal; orphans: 2; text-align: start; text-indent: 0px; text-transform: none; widows: 2; word-spacing: 0px; -webkit-text-stroke-width: 0px; white-space: pre-wrap; background-color: rgb(246, 248, 250); text-decoration-thickness: initial; text-decoration-style: initial; text-decoration-color: initial;&quot;&gt;&lt;span class=&quot;hljs-title&quot; style=&quot;box-sizing: border-box; font-family: inherit; color: rgb(64, 120, 242);&quot;&gt;nsightController&lt;/span&gt; --&amp;gt;&lt;/span&gt;&lt;span style=&quot;color: rgb(56, 58, 66); font-family: ui-monospace, SFMono-Regular, &amp;quot;SF Mono&amp;quot;, Menlo, Consolas, &amp;quot;Liberation Mono&amp;quot;, monospace; font-style: normal; font-variant-ligatures: normal; font-variant-caps: normal; font-weight: 400; letter-spacing: normal; orphans: 2; text-align: start; text-indent: 0px; text-transform: none; widows: 2; word-spacing: 0px; -webkit-text-stroke-width: 0px; white-space: pre-wrap; background-color: rgb(246, 248, 250); text-decoration-thickness: initial; text-decoration-style: initial; text-decoration-color: initial; float: none; display: inline !important;&quot;&gt;&amp;gt; 用户: 展示统计结果（表格/图表）&lt;/span&gt;&lt;/font&gt;" style="text;whiteSpace=wrap;html=1;" vertex="1" parent="1">
          <mxGeometry x="-484.998181818182" y="-21.99818181818199" width="550" height="828" as="geometry" />
        </mxCell>
        <mxCell id="-KiGtzHLehjaaCyr8mLI-36" value="解析指标" style="html=1;verticalAlign=bottom;endArrow=block;labelBackgroundColor=none;fontFamily=Verdana;fontSize=12;edgeStyle=elbowEdgeStyle;elbow=vertical;" edge="1" parent="1" target="-KiGtzHLehjaaCyr8mLI-11">
          <mxGeometry x="-0.0007" relative="1" as="geometry">
            <mxPoint x="459" y="244" as="sourcePoint" />
            <mxPoint x="1147" y="243" as="targetPoint" />
            <mxPoint as="offset" />
          </mxGeometry>
        </mxCell>
        <mxCell id="-KiGtzHLehjaaCyr8mLI-51" value="fetch_row_data" style="html=1;verticalAlign=bottom;endArrow=block;labelBackgroundColor=none;fontFamily=Verdana;fontSize=12;edgeStyle=elbowEdgeStyle;elbow=vertical;" edge="1" parent="1">
          <mxGeometry relative="1" as="geometry">
            <mxPoint x="455" y="318.38" as="sourcePoint" />
            <mxPoint x="867.5" y="317.99538461538475" as="targetPoint" />
          </mxGeometry>
        </mxCell>
        <mxCell id="-KiGtzHLehjaaCyr8mLI-52" value="handle_datas（）" style="html=1;verticalAlign=bottom;endArrow=block;labelBackgroundColor=none;fontFamily=Verdana;fontSize=12;elbow=vertical;edgeStyle=orthogonalEdgeStyle;curved=1;exitX=1.066;exitY=0.713;exitPerimeter=0;" edge="1" parent="1">
          <mxGeometry x="0.0373" y="28" relative="1" as="geometry">
            <mxPoint x="464" y="372.5" as="sourcePoint" />
            <mxPoint x="458" y="411.5" as="targetPoint" />
            <Array as="points">
              <mxPoint x="513" y="372.5" />
              <mxPoint x="513" y="411.5" />
            </Array>
            <mxPoint as="offset" />
          </mxGeometry>
        </mxCell>
        <mxCell id="-KiGtzHLehjaaCyr8mLI-10" value="请求聚合计算" style="html=1;verticalAlign=bottom;endArrow=block;labelBackgroundColor=none;fontFamily=Verdana;fontSize=12;edgeStyle=elbowEdgeStyle;elbow=vertical;" edge="1" parent="1">
          <mxGeometry relative="1" as="geometry">
            <mxPoint x="458" y="435" as="sourcePoint" />
            <mxPoint x="1006.5" y="435.28666666666675" as="targetPoint" />
          </mxGeometry>
        </mxCell>
        <mxCell id="-KiGtzHLehjaaCyr8mLI-56" value="" style="html=1;verticalAlign=bottom;endArrow=block;labelBackgroundColor=none;fontFamily=Verdana;fontSize=12;edgeStyle=elbowEdgeStyle;elbow=vertical;" edge="1" parent="1" target="-KiGtzHLehjaaCyr8mLI-29">
          <mxGeometry relative="1" as="geometry">
            <mxPoint x="1011" y="449.75" as="sourcePoint" />
            <mxPoint x="1160" y="450" as="targetPoint" />
          </mxGeometry>
        </mxCell>
        <mxCell id="-KiGtzHLehjaaCyr8mLI-60" value="&lt;span style=&quot;font-family: Verdana; font-size: 12px;&quot;&gt;请求python服务进行计算&lt;/span&gt;" style="edgeLabel;html=1;align=center;verticalAlign=middle;resizable=0;points=[];" vertex="1" connectable="0" parent="-KiGtzHLehjaaCyr8mLI-56">
          <mxGeometry x="-0.2341" y="5" relative="1" as="geometry">
            <mxPoint x="13" y="-4" as="offset" />
          </mxGeometry>
        </mxCell>
        <mxCell id="-KiGtzHLehjaaCyr8mLI-29" value="" style="html=1;points=[];perimeter=orthogonalPerimeter;rounded=0;shadow=0;comic=0;labelBackgroundColor=none;strokeWidth=1;fontFamily=Verdana;fontSize=12;align=center;" vertex="1" parent="1">
          <mxGeometry x="1155" y="445" width="10" height="102" as="geometry" />
        </mxCell>
      </root>
    </mxGraphModel>
  </diagram>
</mxfile>
